<svg width="60" height="60" viewBox="0 0 60 60" fill="none" xmlns="http://www.w3.org/2000/svg">
<g clip-path="url(#clip0_2_14471)">
<path d="M40 30.0001V29.9976C39.9999 27.6841 39.1977 25.4423 37.73 23.6539C36.2623 21.8656 34.22 20.6415 31.951 20.1901C29.682 19.7388 27.3267 20.0881 25.2863 21.1786C23.246 22.2691 21.6469 24.0333 20.7614 26.1706C19.876 28.3079 19.759 30.6861 20.4304 32.9001C21.1017 35.114 22.52 37.0266 24.4434 38.3121C26.3669 39.5976 28.6765 40.1764 30.9789 39.95C33.2813 39.7235 35.4339 38.7057 37.07 37.0701C37.9983 36.1727 38.7362 35.0974 39.2396 33.9085C39.7431 32.7195 40.0017 31.4413 40 30.1501L39.9975 29.9926V30.0001H40ZM45.4 30.0001C45.388 33.5463 44.1476 36.9787 41.8898 39.7132C39.632 42.4478 36.4965 44.3155 33.0167 44.9985C29.5369 45.6815 25.928 45.1377 22.8041 43.4594C19.6802 41.7812 17.2343 39.0723 15.8828 35.7938C14.5312 32.5153 14.3574 28.8698 15.3911 25.4776C16.4247 22.0854 18.6019 19.1562 21.552 17.1885C24.5022 15.2208 28.043 14.3362 31.572 14.6852C35.1009 15.0341 38.3999 16.5952 40.9075 19.1026C42.3315 20.4844 43.4632 22.1384 44.2354 23.9662C45.0076 25.794 45.4045 27.7584 45.4025 29.7426L45.4 30.0151V30.0026V30.0001ZM49.6175 13.9851V13.9901C49.6178 14.823 49.3292 15.6302 48.801 16.2742C48.2729 16.9182 47.5377 17.3592 46.7209 17.5219C45.904 17.6846 45.056 17.5591 44.3214 17.1667C43.5867 16.7743 43.0109 16.1393 42.6919 15.3699C42.373 14.6005 42.3307 13.7443 42.5722 12.9472C42.8138 12.1501 43.3243 11.4614 44.0167 10.9985C44.7091 10.5356 45.5406 10.3271 46.3695 10.4085C47.1984 10.49 47.9734 10.8563 48.5625 11.4451C49.2025 12.0726 49.6 12.9476 49.6 13.9151V13.9876V13.9851H49.6175ZM30.0175 5.38512L27.03 5.36512C25.22 5.35178 23.8458 5.35178 22.9075 5.36512C21.9692 5.37845 20.7125 5.41762 19.1375 5.48262C17.675 5.53262 16.2875 5.67762 14.93 5.90762L15.1125 5.88262C14.05 6.05762 13.1075 6.30762 12.205 6.64012L12.3125 6.60512C11.0375 7.11765 9.87806 7.88031 8.90253 8.84811C7.927 9.8159 7.15515 10.9692 6.63249 12.2401L6.60749 12.3076C6.2866 13.1859 6.04889 14.0924 5.89749 15.0151L5.88499 15.1076C5.66263 16.4212 5.52983 17.7485 5.48749 19.0801L5.48499 19.1326C5.41999 20.7093 5.38082 21.966 5.36749 22.9026C5.35416 23.8393 5.35416 25.2135 5.36749 27.0251C5.38082 28.8368 5.38749 29.8326 5.38749 30.0126C5.38749 30.1926 5.38082 31.1884 5.36749 33.0001C5.35416 34.8118 5.35416 36.186 5.36749 37.1226C5.38082 38.0593 5.41999 39.316 5.48499 40.8926C5.53499 42.3551 5.67999 43.7426 5.90999 45.1001L5.88499 44.9176C6.05999 45.9801 6.30999 46.9226 6.64249 47.8251L6.60749 47.7176C7.12002 48.9926 7.88268 50.1521 8.85048 51.1276C9.81828 52.1031 10.9716 52.875 12.2425 53.3976L12.31 53.4226C13.105 53.7201 14.0475 53.9701 15.0175 54.1326L15.11 54.1451C16.2825 54.3501 17.67 54.4951 19.08 54.5426L19.1325 54.5451C20.7092 54.6101 21.9658 54.6493 22.9025 54.6626C23.8392 54.676 25.2133 54.676 27.025 54.6626L29.995 54.6026L32.9825 54.6226C34.7925 54.636 36.1667 54.636 37.105 54.6226C38.0433 54.6093 39.3 54.5701 40.875 54.5051C42.3375 54.4551 43.725 54.3101 45.0825 54.0801L44.9 54.1051C45.9625 53.9301 46.905 53.6801 47.8075 53.3476L47.7 53.3826C48.975 52.8701 50.1344 52.1074 51.1099 51.1396C52.0855 50.1718 52.8573 49.0185 53.38 47.7476L53.405 47.6801C53.7025 46.8851 53.9525 45.9426 54.115 44.9726L54.1275 44.8801C54.3325 43.7076 54.4775 42.3201 54.525 40.9101L54.5275 40.8576C54.5925 39.281 54.6317 38.0243 54.645 37.0876C54.6583 36.151 54.6583 34.7768 54.645 32.9651C54.6317 31.1535 54.625 30.1576 54.625 29.9776C54.625 29.7976 54.6317 28.8018 54.645 26.9901C54.6583 25.1784 54.6583 23.8043 54.645 22.8676C54.6317 21.931 54.5925 20.6743 54.5275 19.0976C54.4775 17.6351 54.3325 16.2476 54.1025 14.8901L54.1275 15.0726C53.9689 14.0814 53.7152 13.1077 53.37 12.1651L53.405 12.2726C52.8925 10.9976 52.1298 9.83818 51.162 8.86266C50.1942 7.88713 49.0409 7.11528 47.77 6.59262L47.7025 6.56762C46.8242 6.24673 45.9177 6.00902 44.995 5.85762L44.9025 5.84512C43.5897 5.62287 42.2633 5.49007 40.9325 5.44762L40.88 5.44512C39.3033 5.38012 38.0467 5.34095 37.11 5.32762C36.1733 5.31428 34.7992 5.31428 32.9875 5.32762L30.0175 5.38512ZM60 30.0001C60 35.9635 59.9333 40.091 59.8 42.3826C59.9182 44.7051 59.5471 47.0264 58.7107 49.1963C57.8744 51.3662 56.5914 53.3361 54.9451 54.9784C53.2988 56.6208 51.3257 57.8989 49.1538 58.7299C46.9819 59.561 44.6596 59.9264 42.3375 59.8026L42.3775 59.8051C40.0858 59.9385 35.9583 60.0051 29.995 60.0051C24.0317 60.0051 19.9042 59.9385 17.6125 59.8051C15.29 59.9233 12.9687 59.5522 10.7988 58.7158C8.62895 57.8795 6.65902 56.5966 5.01667 54.9502C3.37433 53.3039 2.09622 51.3308 1.26517 49.1589C0.434113 46.987 0.06866 44.6648 0.19249 42.3426L0.18999 42.3826C0.0566569 40.091 -0.0100098 35.9635 -0.0100098 30.0001C-0.0100098 24.0368 0.0566569 19.9093 0.18999 17.6176C0.0718189 15.2952 0.442929 12.9738 1.27927 10.8039C2.11562 8.63407 3.39853 6.66414 5.04488 5.0218C6.69123 3.37946 8.66428 2.10135 10.8362 1.27029C13.0081 0.43924 15.3303 0.0737869 17.6525 0.197617L17.6125 0.195117C19.9042 0.0617839 24.0317 -0.00488281 29.995 -0.00488281C35.9583 -0.00488281 40.0858 0.0617839 42.3775 0.195117C44.6999 0.0769458 47.0213 0.448056 49.1912 1.2844C51.361 2.12074 53.331 3.40366 54.9733 5.05001C56.6157 6.69636 57.8938 8.66941 58.7248 10.8413C59.5559 13.0132 59.9213 15.3355 59.7975 17.6576L59.8 17.6176C59.9333 19.9076 60 24.0351 60 30.0001Z" fill="black"/>
</g>
<defs>
<clipPath id="clip0_2_14471">
<rect width="60" height="60" fill="white"/>
</clipPath>
</defs>
</svg>
