<svg width="36" height="36" viewBox="0 0 36 36" fill="none" xmlns="http://www.w3.org/2000/svg">
<path d="M34.8331 2.49674C36.389 4.05042 36.389 6.56956 34.8331 8.12324L32.7018 10.2616L25.7394 3.30093L27.8778 1.16542C29.4337 -0.388474 31.9487 -0.388474 33.5046 1.16542L34.8331 2.49674ZM12.2481 16.7974L24.1338 4.9079L31.0962 11.8671L19.2033 23.7524C18.7699 24.1929 18.2371 24.5197 17.6474 24.7186L11.3387 26.8214C10.6638 27.0203 10.0528 26.864 9.591 26.3454C9.13632 25.9476 8.98002 25.2727 9.17894 24.6617L11.2819 18.3532C11.4808 17.7636 11.8076 17.2308 12.2481 16.7974ZM13.6405 4.10939C14.898 4.10939 15.914 5.19135 15.914 6.38272C15.914 7.7041 14.898 8.65606 13.6405 8.65606H6.82027C5.56491 8.65606 4.54684 9.73589 4.54684 10.9294V29.18C4.54684 30.4374 5.56491 31.4533 6.82027 31.4533H25.0076C26.2651 31.4533 27.2811 30.4374 27.2811 29.18V22.2961C27.2811 21.1026 28.297 20.0227 29.5545 20.0227C30.812 20.0227 31.8279 21.1026 31.8279 22.2961V29.18C31.8279 32.9452 28.773 36 25.0076 36H6.82027C3.05349 36 0 32.9452 0 29.18V10.9294C0 7.16418 3.05349 4.10939 6.82027 4.10939H13.6405Z" fill="black"/>
</svg>
