<svg width="40" height="40" viewBox="0 0 44 35" fill="none" xmlns="http://www.w3.org/2000/svg">
<path d="M43.6119 18.8516L41.148 20.8678L36.0969 16.7346L38.5608 14.7184C38.8141 14.5152 39.1547 14.4014 39.5094 14.4014C39.8642 14.4014 40.2048 14.5152 40.4581 14.7184L43.6119 17.2991C44.1294 17.7225 44.1294 18.4282 43.6119 18.8516ZM19.7116 30.1222L34.6431 17.904L39.6942 22.0372L24.7873 34.2756H19.7116V30.1222ZM19.7116 20.1621C8.82094 20.1621 0 23.7712 0 28.227V32.2594H14.7837V28.4488L24.6395 20.3839C23.0133 20.2226 21.3625 20.1621 19.7116 20.1621ZM19.7116 0C17.0977 0 14.5908 0.849687 12.7425 2.36214C10.8942 3.87459 9.8558 5.92592 9.8558 8.06486C9.8558 10.2038 10.8942 12.2551 12.7425 13.7676C14.5908 15.28 17.0977 16.1297 19.7116 16.1297C22.3255 16.1297 24.8324 15.28 26.6807 13.7676C28.529 12.2551 29.5674 10.2038 29.5674 8.06486C29.5674 5.92592 28.529 3.87459 26.6807 2.36214C24.8324 0.849687 22.3255 0 19.7116 0Z" fill="black"/>
</svg>
