<svg width="17" height="21" viewBox="0 0 17 21" fill="none" xmlns="http://www.w3.org/2000/svg">
<path d="M8.5 10.4999C7.35417 10.4999 6.41667 9.56242 6.41667 8.41659C6.41667 7.27075 7.35417 6.33325 8.5 6.33325C9.64584 6.33325 10.5833 7.27075 10.5833 8.41659C10.5833 9.56242 9.64584 10.4999 8.5 10.4999ZM14.75 8.62492C14.75 4.84367 11.9896 2.16659 8.5 2.16659C5.01042 2.16659 2.25 4.84367 2.25 8.62492C2.25 11.0624 4.28125 14.2916 8.5 18.1458C12.7188 14.2916 14.75 11.0624 14.75 8.62492ZM8.5 0.083252C12.875 0.083252 16.8333 3.43742 16.8333 8.62492C16.8333 12.0833 14.0521 16.177 8.5 20.9166C2.94792 16.177 0.166672 12.0833 0.166672 8.62492C0.166672 3.43742 4.125 0.083252 8.5 0.083252Z" fill="black"/>
</svg>
