<svg width="12" height="14" viewBox="0 0 12 14" fill="none" xmlns="http://www.w3.org/2000/svg">
<path fill-rule="evenodd" clip-rule="evenodd" d="M4.60833 1.22585C5.75035 0.752754 7.00702 0.628936 8.21941 0.87005C9.4318 1.11116 10.5455 1.70638 11.4196 2.58043C11.654 2.81487 11.7857 3.13284 11.7857 3.46439C11.7857 3.79594 11.654 4.11391 11.4196 4.34835C11.1851 4.58279 10.8672 4.71449 10.5356 4.71449C10.2041 4.71449 9.8861 4.58279 9.65166 4.34835C9.12719 3.82376 8.45893 3.46649 7.7314 3.32172C7.00387 3.17694 6.24974 3.25117 5.5644 3.535C4.87906 3.81884 4.29327 4.29954 3.88114 4.91631C3.469 5.53308 3.24902 6.25822 3.24902 7.00001C3.24902 7.74181 3.469 8.46695 3.88114 9.08372C4.29327 9.70049 4.87906 10.1812 5.5644 10.465C6.24974 10.7489 7.00387 10.8231 7.7314 10.6783C8.45893 10.5335 9.12719 10.1763 9.65166 9.65168C9.8861 9.41724 10.2041 9.28553 10.5356 9.28553C10.8672 9.28553 11.1851 9.41724 11.4196 9.65168C11.654 9.88612 11.7857 10.2041 11.7857 10.5356C11.7857 10.8672 11.654 11.1852 11.4196 11.4196C10.7661 12.073 9.97584 12.5734 9.10573 12.8847C8.23561 13.196 7.30729 13.3105 6.38761 13.2199C5.46794 13.1293 4.5798 12.8359 3.78715 12.3608C2.99451 11.8857 2.31708 11.2407 1.80367 10.4723C1.29025 9.70392 0.953616 8.83125 0.818008 7.91713C0.682401 7.003 0.751194 6.07018 1.01943 5.18584C1.28768 4.3015 1.74869 3.48765 2.36927 2.8029C2.98985 2.11814 3.75456 1.57953 4.60833 1.22585ZM8.05666 1.68751C7.13883 1.50489 6.18934 1.56318 5.30074 1.8567C4.41214 2.15021 3.61474 2.66894 2.98626 3.36232C2.35778 4.05571 1.91966 4.90009 1.71461 5.81317C1.50955 6.72625 1.54456 7.67689 1.81621 8.57241C2.08787 9.46794 2.5869 10.2778 3.26468 10.9231C3.94245 11.5684 4.77584 12.0271 5.68363 12.2544C6.59141 12.4818 7.54262 12.4701 8.44453 12.2204C9.34645 11.9708 10.1683 11.4918 10.83 10.83C10.9059 10.7514 10.9479 10.6462 10.9469 10.5369C10.946 10.4277 10.9022 10.3232 10.8249 10.2459C10.7477 10.1687 10.6432 10.1249 10.5339 10.1239C10.4247 10.123 10.3194 10.1649 10.2408 10.2408C9.59985 10.8819 8.78318 11.3184 7.89409 11.4953C7.00501 11.6721 6.08344 11.5814 5.24593 11.2345C4.40843 10.8876 3.6926 10.3001 3.18896 9.5464C2.68533 8.79267 2.41652 7.90652 2.41652 7.00001C2.41652 6.09351 2.68533 5.20736 3.18896 4.45363C3.6926 3.6999 4.40843 3.11244 5.24593 2.76555C6.08344 2.41865 7.00501 2.3279 7.89409 2.50476C8.78318 2.68163 9.59985 3.11817 10.2408 3.75918C10.2793 3.79898 10.3252 3.83072 10.3761 3.85256C10.4269 3.87439 10.4816 3.88589 10.5369 3.88637C10.5922 3.88685 10.6471 3.87631 10.6983 3.85536C10.7495 3.83441 10.796 3.80347 10.8352 3.76434C10.8743 3.72522 10.9052 3.6787 10.9262 3.62749C10.9471 3.57629 10.9577 3.52142 10.9572 3.4661C10.9567 3.41077 10.9452 3.3561 10.9234 3.30526C10.9015 3.25443 10.8698 3.20845 10.83 3.17001C10.0725 2.41247 9.10737 1.89655 8.05666 1.68751Z" fill="black"/>
</svg>
