<svg width="60" height="60" viewBox="0 0 60 60" fill="none" xmlns="http://www.w3.org/2000/svg">
<path d="M30 0C13.4313 0 0 13.4313 0 30C0 46.5687 13.4313 60 30 60C46.5687 60 60 46.5687 60 30C60 13.4313 46.5687 0 30 0Z" fill="#16AFEB"/>
<path d="M44.5976 17.2571L39.2391 44.2732C39.2391 44.2732 38.4898 46.1468 36.4289 45.2475L24.0638 35.7675L19.5675 33.5944L11.9986 31.0463C11.9986 31.0463 10.837 30.6343 10.7245 29.735C10.612 28.8357 12.0361 28.3486 12.0361 28.3486L42.1242 16.5455C42.1242 16.5455 44.5973 15.4589 44.5973 17.2575" fill="white"/>
<path d="M23.1136 43.9696C23.1136 43.9696 22.7527 43.9358 22.3027 42.5117C21.8534 41.0879 19.5675 33.594 19.5675 33.594L37.7405 22.0534C37.7405 22.0534 38.7898 21.4164 38.7523 22.0534C38.7523 22.0534 38.9395 22.1659 38.3773 22.6904C37.8155 23.2152 24.1015 35.5426 24.1015 35.5426" fill="#D2E5F1"/>
<path d="M28.8049 39.4018L23.9142 43.8611C23.9142 43.8611 23.5317 44.1512 23.1136 43.9693L24.0501 35.6865" fill="#B5CFE4"/>
</svg>
