<svg width="60" height="57" viewBox="0 0 60 57" fill="none" xmlns="http://www.w3.org/2000/svg">
<path d="M30 0C13.4312 0 0 12.6632 0 28.2845C0 43.9059 13.4312 56.5691 30 56.5691C46.5687 56.5691 60 43.9059 60 28.2845C60 12.6632 46.5687 0 30 0ZM42.2031 23.1698C42.2156 23.4114 42.2187 23.653 42.2187 23.8887C42.2187 31.2544 36.2781 39.7427 25.4094 39.7427C22.1978 39.7478 19.053 38.8781 16.3531 37.2384C16.8125 37.2914 17.2844 37.312 17.7625 37.312C20.5312 37.312 23.0781 36.4252 25.1 34.9285C23.8679 34.9057 22.674 34.521 21.6847 33.8281C20.6955 33.1352 19.9602 32.1685 19.5812 31.0629C20.4661 31.2215 21.3777 31.1883 22.2469 30.9657C20.9095 30.7107 19.7069 30.0275 18.8428 29.0319C17.9788 28.0363 17.5066 26.7896 17.5062 25.5032V25.4355C18.3031 25.8509 19.2156 26.1043 20.1844 26.1337C18.9306 25.3469 18.0431 24.1381 17.7033 22.7547C17.3634 21.3713 17.597 19.9178 18.3562 18.6914C19.8405 20.412 21.6914 21.8196 23.7893 22.823C25.8871 23.8264 28.1851 24.4033 30.5344 24.5162C30.2357 23.3209 30.3642 22.0661 30.9 20.9468C31.4358 19.8275 32.3488 18.9064 33.4971 18.3268C34.6454 17.7472 35.9646 17.5415 37.2497 17.7417C38.5347 17.9419 39.7136 18.5368 40.6031 19.4338C41.9255 19.1872 43.1937 18.7298 44.3531 18.0815C43.9124 19.3724 42.9896 20.4685 41.7562 21.1663C42.9276 21.0332 44.0715 20.7363 45.15 20.2853C44.3578 21.4046 43.3598 22.3814 42.2031 23.1698Z" fill="#47BFDB"/>
</svg>
