<svg width="60" height="60" viewBox="0 0 60 60" fill="none" xmlns="http://www.w3.org/2000/svg">
<g clip-path="url(#clip0_2_14474)">
<path d="M15.8585 51.3876L16.8394 51.8725C20.9269 54.2963 25.5044 55.4275 30.0823 55.4275C44.4694 55.4275 56.2406 43.7926 56.2406 29.5722C56.2406 22.7852 53.4612 16.1597 48.5566 11.3118C43.6519 6.46382 37.1121 3.7168 30.0823 3.7168C15.6951 3.7168 3.92366 15.3517 4.08726 29.7339C4.08726 34.5816 5.55866 39.2681 8.01093 43.3078L8.66483 44.2775L6.04921 53.8117L15.8585 51.3876Z" fill="#00E676"/>
<path d="M51.3359 8.72618C45.7772 3.07042 38.0932 0 30.2456 0C13.5698 0 0.163594 13.4124 0.326953 29.7336C0.326953 34.9047 1.79836 39.9144 4.25086 44.4389L0 59.7906L15.8585 55.7507C20.2727 58.1747 25.1773 59.3059 30.0823 59.3059C46.5947 59.3059 60.0009 45.8933 60.0009 29.5724C60.0009 21.654 56.8945 14.2205 51.3361 8.72618H51.3359ZM30.2456 54.2965C25.8314 54.2965 21.4172 53.1656 17.6569 50.9032L16.676 50.4183L7.19367 52.8422L9.64594 43.6314L8.99203 42.6616C1.79836 31.1884 5.23172 15.998 17.003 8.88764C28.7742 1.77753 43.9788 5.17112 51.1725 16.806C58.3659 28.4409 54.9326 43.4694 43.1616 50.5798C39.401 53.0036 34.8234 54.2963 30.2456 54.2963V54.2965ZM44.6327 36.3595L42.8344 35.5515C42.8344 35.5515 40.2188 34.4203 38.5837 33.6123C38.4202 33.6123 38.2568 33.4506 38.0932 33.4506C37.6027 33.4506 37.2757 33.6123 36.9487 33.774C36.9487 33.774 36.7854 33.9354 34.4965 36.521C34.3329 36.8442 34.0059 37.0059 33.679 37.0059H33.5154C33.352 37.0059 33.0251 36.8442 32.8615 36.6827L32.044 36.3595C30.2456 35.5515 28.6109 34.5818 27.3028 33.2891C26.9759 32.9659 26.4853 32.6428 26.1584 32.3196C25.0139 31.1884 23.8695 29.8955 23.0522 28.4412L22.8886 28.118C22.7252 27.9563 22.7252 27.7948 22.5616 27.4717C22.5616 27.1485 22.5616 26.8253 22.7252 26.6636C22.7252 26.6636 23.3791 25.8556 23.8695 25.371C24.1966 25.0476 24.36 24.5629 24.687 24.2398C25.0139 23.7549 25.1775 23.1086 25.0139 22.6237C24.8505 21.8157 22.8886 17.4526 22.3983 16.4831C22.0711 15.9982 21.7444 15.8368 21.2538 15.6751H19.4555C19.1283 15.6751 18.8016 15.8368 18.4744 15.8368L18.3108 15.9982C17.9838 16.1599 17.6569 16.4831 17.3299 16.6446C17.003 16.968 16.8394 17.2909 16.5124 17.6143C15.368 19.0686 14.7141 20.8462 14.7141 22.6237C14.7141 23.9164 15.041 25.2093 15.5316 26.3405L15.6952 26.8253C17.1666 29.8955 19.1283 32.6428 21.7444 35.0666L22.3983 35.713C22.8886 36.1978 23.3791 36.521 23.7061 37.0056C27.1395 39.9146 31.0631 42.0153 35.4773 43.1465C35.9679 43.308 36.6218 43.308 37.1123 43.4697H38.7471C39.5646 43.4697 40.5455 43.1465 41.1996 42.8233C41.6899 42.5002 42.0169 42.5002 42.3438 42.177L42.671 41.8536C42.998 41.5304 43.3249 41.369 43.6519 41.0458C43.9788 40.7226 44.3058 40.3995 44.4694 40.0761C44.7963 39.4297 44.9597 38.6217 45.1233 37.8139V36.6827C45.1233 36.6827 44.9597 36.521 44.6327 36.3595Z" fill="white"/>
</g>
<defs>
<clipPath id="clip0_2_14474">
<rect width="60" height="60" fill="white"/>
</clipPath>
</defs>
</svg>
